<svg xmlns="http://www.w3.org/2000/svg" xmlns:xlink="http://www.w3.org/1999/xlink" width="600" zoomAndPan="magnify" viewBox="0 0 450 449.999984" height="600" preserveAspectRatio="xMidYMid meet" version="1.0"><defs><clipPath id="1a183268e9"><path d="M 72 63 L 378.457031 63 L 378.457031 385 L 72 385 Z M 72 63 " clip-rule="nonzero"/></clipPath></defs><g clip-path="url(#1a183268e9)"><path fill="#B8696C" d="M 378.570312 174.785156 C 377.007812 165.835938 372.140625 157.613281 363.648438 153.402344 C 347.351562 145.179688 322.4375 133.363281 294.898438 122.847656 C 294.558594 111.867188 281.132812 104.425781 273.089844 103.195312 C 271.457031 66.8125 227.863281 62.199219 215.25 63.46875 C 213.398438 63.589844 211.738281 64.648438 210.8125 66.253906 C 209.890625 67.855469 209.835938 69.835938 210.660156 71.492188 C 211.0625 72.296875 214.402344 79.46875 209.089844 83.792969 C 197.28125 92.238281 172.082031 99.859375 178.964844 118.871094 C 174.683594 122.339844 170.5625 128.453125 170.550781 137.894531 C 140.28125 159.683594 100.445312 191.628906 77.152344 223.5 C 73.871094 228.070312 72.136719 233.503906 72.136719 239.210938 L 72.136719 366.988281 C 71.816406 378.335938 83.765625 387.371094 94.589844 384.019531 C 94.589844 384.019531 365.550781 309.996094 365.550781 309.996094 C 373.210938 307.910156 378.554688 300.90625 378.554688 292.964844 L 378.554688 177.746094 C 378.558594 176.636719 378.375 175.78125 378.570312 174.785156 Z M 257.023438 241.332031 L 223.390625 249.625 L 223.390625 221.449219 C 223.957031 199.273438 256.46875 199.324219 257.023438 221.449219 C 257.023438 221.449219 257.023438 241.332031 257.023438 241.332031 Z M 223.390625 261.035156 L 260.59375 251.859375 C 269.0625 264.042969 289.191406 258.808594 291.167969 244.3125 C 291.167969 244.3125 367.460938 225.457031 367.460938 225.457031 C 367.460938 225.457031 367.460938 259.761719 367.460938 259.761719 L 223.390625 295.34375 C 223.390625 295.34375 223.390625 261.035156 223.390625 261.035156 Z M 367.460938 182.328125 L 367.460938 214.042969 L 291.402344 232.839844 L 291.402344 209.460938 C 291.378906 201.5625 296.359375 194.570312 303.761719 191.839844 C 311.226562 188.75 317.921875 190.800781 323.675781 197.933594 C 327.90625 203.199219 335.226562 207.019531 341.082031 207.019531 C 357.804688 207.167969 358.347656 189.464844 367.460938 182.328125 Z M 204.449219 99.546875 C 215.558594 94.34375 224.949219 86.671875 222.945312 74.613281 C 245.351562 75.414062 267.796875 87.464844 261.136719 116.859375 C 260.5625 119.867188 262.539062 122.765625 265.550781 123.335938 C 271.023438 124.273438 272.5 118.875 272.6875 114.539062 C 278.332031 116.1875 285.097656 119.652344 283.894531 126.566406 C 282.492188 136.820312 263.800781 145.210938 232.617188 149.582031 C 216.417969 151.859375 192.101562 149.242188 183.789062 142.34375 C 178.4375 138.0625 183.625 128.804688 185.753906 127.550781 C 191.914062 131.816406 200.085938 132.851562 206.414062 132.851562 C 212.019531 132.800781 218.75 133.070312 218.433594 126.292969 C 218.085938 123.261719 215.351562 121.054688 212.285156 121.433594 C 203.160156 122.496094 194.839844 121.042969 191.117188 117.738281 C 184.070312 109.921875 195.589844 104.484375 204.449219 99.546875 Z M 174.5 148.714844 C 199.746094 173.476562 283.484375 158.5 293.128906 134.042969 C 319.355469 144.175781 343.019531 155.40625 358.617188 163.277344 C 361.867188 164.941406 364.304688 167.644531 365.804688 170.929688 C 357.527344 173.921875 353.5625 181.121094 350.566406 186.738281 C 345.484375 197.886719 339.710938 198.457031 332.320312 190.996094 C 323.503906 180.046875 311.554688 176.609375 299.5 181.613281 C 287.9375 186.050781 280.285156 197.078125 280.308594 209.460938 C 280.308594 209.460938 280.308594 241.566406 280.308594 241.566406 C 280.132812 249.558594 268.257812 249.585938 268.121094 241.566406 C 268.121094 241.566406 268.121094 221.449219 268.121094 221.449219 C 268.121094 213.523438 264.726562 205.949219 258.8125 200.667969 C 241.527344 184.605469 211.789062 197.832031 212.296875 221.449219 C 212.296875 221.449219 212.296875 313.730469 212.296875 313.730469 C 212.175781 321.945312 199.785156 322.085938 199.652344 313.730469 C 199.652344 313.730469 199.652344 231.875 199.652344 231.875 C 198.84375 204.371094 158.839844 204.378906 157.976562 231.878906 C 157.976562 231.875 157.976562 286.617188 157.976562 286.617188 C 157.871094 297.074219 142.203125 297.605469 141.574219 286.96875 C 140.164062 257.503906 137.40625 238.328125 133.375 229.96875 C 123.449219 213.210938 97.933594 228.027344 83.738281 235.339844 C 84.210938 233.414062 84.992188 231.59375 86.140625 229.992188 C 107.914062 200.203125 145.242188 169.953125 174.5 148.714844 Z M 83.230469 329.941406 L 83.230469 295.628906 L 130.296875 284.023438 C 130.179688 290.847656 132.34375 297.769531 138.050781 301.925781 C 150.078125 311.683594 169.613281 302.179688 169.070312 286.613281 C 169.070312 286.617188 169.070312 274.40625 169.070312 274.40625 L 188.558594 269.640625 L 188.558594 303.96875 Z M 83.230469 248.5625 C 95.832031 240.742188 114.683594 231.707031 121.925781 233.707031 C 122.921875 233.984375 123.191406 234.390625 123.375 234.777344 C 125.984375 240.179688 128.160156 253.773438 129.582031 272.792969 L 83.230469 284.21875 Z M 188.558594 258.238281 L 169.070312 263.003906 L 169.070312 231.878906 C 169.289062 219.097656 188.359375 219.085938 188.558594 231.878906 C 188.558594 231.878906 188.558594 258.238281 188.558594 258.238281 Z M 362.628906 299.308594 L 91.65625 373.335938 C 87.574219 374.589844 83.113281 371.257812 83.230469 366.988281 C 83.230469 366.988281 83.230469 341.347656 83.230469 341.347656 L 188.730469 315.335938 C 189.3125 324.050781 197.234375 331.300781 205.96875 331.117188 C 215.460938 331.191406 223.457031 323.207031 223.390625 313.730469 C 223.390625 313.730469 223.390625 306.753906 223.390625 306.753906 L 367.460938 271.175781 L 367.460938 292.964844 C 367.460938 295.925781 365.472656 298.53125 362.628906 299.308594 Z M 362.628906 299.308594 " fill-opacity="1" fill-rule="nonzero"/></g></svg>