<svg xmlns="http://www.w3.org/2000/svg" xmlns:xlink="http://www.w3.org/1999/xlink" width="600" zoomAndPan="magnify" viewBox="0 0 450 449.999984" height="600" preserveAspectRatio="xMidYMid meet" version="1.0"><defs><clipPath id="4dc06dfffa"><path d="M 86 61 L 365 61 L 365 389.792969 L 86 389.792969 Z M 86 61 " clip-rule="nonzero"/></clipPath></defs><g clip-path="url(#4dc06dfffa)"><path fill="#B8696C" d="M 231.925781 272.636719 L 231.925781 379.546875 L 269.476562 379.546875 L 284.226562 271.386719 C 281.167969 267.890625 277.488281 265.089844 273.429688 263.101562 C 268.777344 260.824219 263.578125 259.59375 258.199219 259.59375 C 253.703125 259.59375 249.332031 260.453125 245.300781 262.066406 L 245.078125 262.15625 C 244.363281 262.449219 243.65625 262.761719 242.964844 263.101562 C 239.027344 265.03125 235.445312 267.726562 232.441406 271.082031 C 232.355469 271.613281 232.1875 272.140625 231.925781 272.636719 Z M 202.765625 72.699219 C 212.609375 72.699219 221.519531 76.695312 227.972656 83.152344 C 230.609375 85.789062 232.832031 88.839844 234.542969 92.199219 C 237.925781 89.960938 240.992188 87.277344 243.632812 84 C 247.5 79.199219 250.523438 73.042969 252.402344 65.027344 C 253.039062 62.289062 255.777344 60.589844 258.511719 61.222656 C 259.234375 61.394531 259.886719 61.707031 260.441406 62.132812 C 276.816406 72.660156 289 85.914062 296.980469 101.003906 C 304.695312 115.582031 308.46875 131.839844 308.296875 148.96875 C 330.550781 156.496094 344.464844 170.796875 336.652344 207.421875 C 338.699219 208.042969 340.40625 208.597656 341.765625 209.085938 L 341.816406 209.101562 C 347.839844 211.074219 353.042969 214.695312 356.945312 219.402344 C 360.851562 224.101562 363.453125 229.886719 364.285156 236.183594 C 365.113281 242.472656 364.101562 248.722656 361.554688 254.269531 C 359.789062 258.117188 357.285156 261.628906 354.144531 264.574219 C 354.828125 265.335938 355.484375 266.121094 356.121094 266.933594 C 357.230469 268.203125 357.6875 270 357.167969 271.738281 L 326.636719 373.199219 C 325.144531 378.164062 322.179688 382.292969 318.285156 385.195312 C 314.386719 388.09375 309.585938 389.742188 304.425781 389.742188 L 180.167969 389.742188 C 179.710938 389.800781 179.261719 389.796875 178.828125 389.742188 L 149.238281 389.742188 C 144.074219 389.742188 139.277344 388.089844 135.378906 385.191406 C 131.484375 382.296875 128.519531 378.164062 127.027344 373.199219 L 96.496094 271.738281 C 96.058594 270.222656 96.316406 268.523438 97.351562 267.179688 C 98.339844 265.898438 99.390625 264.675781 100.5 263.519531 C 97.925781 260.125 95.738281 256.742188 93.917969 253.390625 C 86.582031 239.882812 85.03125 226.753906 87.824219 214.855469 C 90.601562 203.015625 97.671875 192.5 107.609375 184.125 C 110.382812 181.789062 113.371094 179.621094 116.542969 177.644531 C 112.40625 167.011719 112.359375 155.265625 119.296875 142.710938 L 119.578125 142.261719 C 123.832031 135.734375 130.398438 129.855469 139.273438 124.625 C 142.234375 122.878906 145.453125 121.203125 148.9375 119.597656 L 148.949219 119.59375 C 154.4375 117.0625 160.570312 114.699219 167.355469 112.515625 C 167.195312 111.15625 167.117188 109.773438 167.117188 108.371094 C 167.117188 98.523438 171.109375 89.605469 177.558594 83.152344 C 184.007812 76.695312 192.925781 72.699219 202.765625 72.699219 Z M 237.863281 102.097656 C 238.226562 104.132812 238.414062 106.230469 238.414062 108.371094 C 238.414062 118.21875 234.421875 127.140625 227.972656 133.597656 C 221.519531 140.050781 212.609375 144.046875 202.765625 144.046875 C 192.921875 144.046875 184.007812 140.050781 177.558594 133.597656 C 174.359375 130.394531 171.769531 126.589844 169.964844 122.367188 C 164.320312 124.203125 159.183594 126.148438 154.566406 128.203125 C 151.425781 133.511719 151.300781 138.402344 154.199219 142.867188 C 157.957031 148.652344 166.226562 154.191406 179 159.488281 L 179.179688 159.566406 C 192.84375 165.792969 208.089844 171.714844 224.917969 177.328125 C 241.710938 182.925781 260.234375 188.265625 280.484375 193.332031 C 300.570312 197.980469 316.019531 201.753906 326.839844 204.65625 C 333.722656 170.84375 317.359375 160.972656 294.398438 155.640625 C 287.996094 154.152344 281.0625 152.976562 273.964844 151.769531 C 268.046875 150.765625 262.011719 149.742188 255.898438 148.46875 C 253.148438 147.898438 251.386719 145.207031 251.957031 142.457031 C 252.527344 139.710938 255.21875 137.945312 257.964844 138.515625 C 263.765625 139.722656 269.757812 140.738281 275.636719 141.738281 C 282.902344 142.96875 290 144.175781 296.667969 145.722656 L 298.128906 146.070312 C 297.867188 131.664062 294.488281 118.023438 287.988281 105.742188 C 281.699219 93.851562 272.464844 83.199219 260.292969 74.324219 C 258.082031 80.675781 255.113281 85.945312 251.550781 90.371094 C 247.617188 95.25 242.988281 99.046875 237.863281 102.097656 Z M 220.769531 90.355469 C 216.164062 85.75 209.796875 82.894531 202.765625 82.894531 C 195.734375 82.894531 189.367188 85.75 184.761719 90.355469 C 180.15625 94.964844 177.304688 101.335938 177.304688 108.371094 C 177.304688 115.410156 180.15625 121.78125 184.761719 126.390625 C 189.367188 130.996094 195.734375 133.851562 202.765625 133.851562 C 209.796875 133.851562 216.164062 130.996094 220.769531 126.390625 C 225.375 121.78125 228.226562 115.410156 228.226562 108.371094 C 228.226562 101.335938 225.375 94.964844 220.769531 90.355469 Z M 346.492188 257.804688 C 344.625 256.5 342.660156 255.339844 340.621094 254.332031 C 334.53125 251.332031 327.78125 249.714844 320.855469 249.714844 C 313.933594 249.714844 307.183594 251.332031 301.089844 254.332031 L 300.8125 254.476562 C 296.75 256.515625 292.996094 259.167969 289.699219 262.363281 C 286.230469 258.933594 282.234375 256.113281 277.886719 253.984375 C 271.808594 251.007812 265.085938 249.398438 258.199219 249.398438 C 253.152344 249.398438 248.195312 250.261719 243.507812 251.894531 C 226.621094 244.117188 211.238281 236.769531 197.546875 229.820312 C 183.539062 222.707031 171.402344 216.050781 161.375 209.816406 C 150.328125 202.953125 138.054688 193.613281 130.625 182.589844 C 129.730469 181.257812 128.90625 179.898438 128.167969 178.515625 C 128.066406 178.066406 127.902344 177.625 127.671875 177.203125 C 127.503906 176.894531 127.308594 176.609375 127.089844 176.351562 C 123.089844 167.667969 122.511719 158.019531 128.136719 147.75 C 131.125 143.179688 135.695312 138.917969 141.839844 134.964844 C 141.574219 139.566406 142.855469 144.046875 145.683594 148.402344 C 150.582031 155.9375 160.382812 162.761719 175.085938 168.863281 C 189 175.199219 204.550781 181.230469 221.734375 186.960938 C 238.996094 192.722656 257.761719 198.136719 278.019531 203.203125 L 278.117188 203.226562 C 310.515625 210.722656 330.578125 215.863281 338.3125 218.644531 L 338.675781 218.777344 C 342.855469 220.144531 346.460938 222.648438 349.148438 225.890625 C 351.84375 229.136719 353.640625 233.136719 354.214844 237.496094 C 354.792969 241.859375 354.089844 246.199219 352.324219 250.046875 C 350.972656 252.988281 348.996094 255.644531 346.492188 257.804688 Z M 232.101562 257.808594 C 230.242188 259.140625 228.480469 260.617188 226.832031 262.226562 C 223.394531 258.859375 219.445312 256.085938 215.15625 253.984375 C 209.078125 251.007812 202.351562 249.398438 195.464844 249.398438 C 188.578125 249.398438 181.855469 251.007812 175.777344 253.984375 C 171.429688 256.113281 167.433594 258.933594 163.964844 262.363281 C 160.59375 259.09375 156.742188 256.394531 152.574219 254.332031 C 146.484375 251.332031 139.730469 249.714844 132.808594 249.714844 C 125.882812 249.714844 119.132812 251.332031 113.042969 254.332031 L 112.765625 254.476562 C 111.234375 255.246094 109.75 256.101562 108.316406 257.035156 C 106.179688 254.183594 104.359375 251.34375 102.828125 248.53125 C 96.792969 237.414062 95.484375 226.738281 97.730469 217.164062 C 99.992188 207.519531 105.859375 198.867188 114.136719 191.890625 C 116.316406 190.054688 118.667969 188.328125 121.171875 186.726562 C 121.503906 187.25 121.84375 187.765625 122.191406 188.28125 C 130.574219 200.722656 143.996094 210.996094 156 218.457031 C 166.222656 224.808594 178.625 231.613281 192.972656 238.898438 C 204.6875 244.84375 217.777344 251.144531 232.101562 257.808594 Z M 279.730469 379.546875 L 294.363281 272.238281 C 297.429688 268.585938 301.175781 265.652344 305.324219 263.570312 L 305.585938 263.449219 C 310.257812 261.148438 315.472656 259.90625 320.855469 259.90625 C 326.242188 259.90625 331.453125 261.148438 336.128906 263.441406 L 336.144531 263.449219 C 340.078125 265.382812 343.652344 268.078125 346.640625 271.421875 L 316.886719 370.292969 C 316.042969 373.105469 314.390625 375.425781 312.234375 377.03125 C 310.078125 378.632812 307.378906 379.546875 304.425781 379.546875 Z M 221.738281 379.546875 L 221.738281 272.691406 C 221.46875 272.1875 221.28125 271.632812 221.195312 271.042969 C 218.195312 267.707031 214.625 265.023438 210.699219 263.101562 C 206.046875 260.824219 200.847656 259.59375 195.464844 259.59375 C 190.085938 259.59375 184.886719 260.824219 180.234375 263.101562 C 176.175781 265.089844 172.492188 267.894531 169.433594 271.394531 L 183.933594 379.546875 Z M 107.023438 271.421875 L 136.777344 370.292969 C 137.621094 373.105469 139.273438 375.425781 141.429688 377.03125 C 143.582031 378.632812 146.289062 379.546875 149.238281 379.546875 L 173.683594 379.546875 L 159.296875 272.234375 C 156.171875 268.511719 152.34375 265.539062 148.097656 263.449219 L 148.082031 263.441406 C 143.40625 261.148438 138.191406 259.90625 132.808594 259.90625 C 127.421875 259.90625 122.210938 261.148438 117.539062 263.449219 L 117.277344 263.570312 C 113.4375 265.492188 109.953125 268.148438 107.023438 271.421875 Z M 107.023438 271.421875 " fill-opacity="1" fill-rule="evenodd"/></g></svg>