<svg xmlns="http://www.w3.org/2000/svg" xmlns:xlink="http://www.w3.org/1999/xlink" width="600" zoomAndPan="magnify" viewBox="0 0 450 449.999984" height="600" preserveAspectRatio="xMidYMid meet" version="1.0"><defs><g/><clipPath id="a128aa6b4c"><path d="M 263.152344 200 L 428 200 L 428 263 L 263.152344 263 Z M 263.152344 200 " clip-rule="nonzero"/></clipPath><clipPath id="c9f9cfba3c"><path d="M 263.152344 108 L 428 108 L 428 289.882812 L 263.152344 289.882812 Z M 263.152344 108 " clip-rule="nonzero"/></clipPath><clipPath id="f0df76bcb5"><path d="M 263.152344 108 L 428 108 L 428 233 L 263.152344 233 Z M 263.152344 108 " clip-rule="nonzero"/></clipPath><clipPath id="1521598f8d"><rect x="0" width="237" y="0" height="192"/></clipPath><clipPath id="46d3de56e6"><rect x="0" width="417" y="0" height="49"/></clipPath></defs><g clip-path="url(#a128aa6b4c)"><path fill="#b8696c" d="M 345.917969 262.433594 C 342.753906 262.433594 339.484375 261.449219 336.976562 259.488281 L 265.332031 208.019531 C 263.589844 206.710938 263.152344 204.3125 264.460938 202.457031 C 265.769531 200.714844 268.167969 200.277344 270.023438 201.585938 L 341.773438 253.054688 C 343.953125 254.691406 347.332031 254.910156 349.40625 253.492188 L 421.046875 201.585938 C 422.792969 200.277344 425.300781 200.714844 426.609375 202.457031 C 427.917969 204.203125 427.480469 206.710938 425.738281 208.019531 L 353.984375 259.925781 C 351.585938 261.558594 348.75 262.433594 345.917969 262.433594 Z M 345.917969 262.433594 " fill-opacity="1" fill-rule="nonzero"/></g><g clip-path="url(#c9f9cfba3c)"><path fill="#82474a" d="M 345.480469 289.800781 C 342.207031 289.800781 338.9375 288.820312 336.429688 286.96875 L 268.605469 236.480469 C 265.332031 234.082031 263.589844 230.589844 263.804688 226.992188 C 263.804688 226.992188 263.804688 172.6875 263.804688 172.472656 C 263.804688 172.472656 263.804688 172.253906 263.804688 171.925781 C 263.804688 171.925781 263.804688 171.707031 263.804688 171.378906 C 263.804688 171.378906 263.804688 171.164062 263.804688 170.835938 C 263.695312 167.5625 265.441406 164.074219 268.605469 161.675781 L 336.429688 110.96875 C 341.554688 107.152344 349.515625 107.152344 354.53125 110.96875 L 422.355469 161.566406 C 425.628906 163.964844 427.371094 167.453125 427.152344 171.054688 C 427.152344 175.960938 427.152344 226.992188 427.152344 227.210938 C 427.261719 230.484375 425.519531 233.972656 422.355469 236.371094 L 354.53125 286.96875 C 352.023438 288.929688 348.75 289.800781 345.480469 289.800781 Z M 345.480469 116.09375 C 343.84375 116.09375 342.316406 116.53125 341.117188 117.402344 L 273.292969 167.890625 C 272.203125 168.761719 271.546875 169.746094 271.65625 170.726562 C 271.65625 170.835938 271.65625 171.488281 271.65625 171.597656 C 271.65625 171.707031 271.65625 172.035156 271.65625 172.144531 C 271.65625 172.253906 271.65625 172.582031 271.65625 172.6875 C 271.65625 173.5625 271.65625 226.011719 271.65625 226.992188 C 271.65625 228.191406 272.203125 229.175781 273.292969 230.046875 L 341.117188 280.644531 C 343.410156 282.386719 347.550781 282.386719 349.84375 280.644531 L 417.667969 230.046875 C 418.757812 229.175781 419.410156 228.191406 419.304688 227.210938 C 419.304688 225.902344 419.304688 172.035156 419.304688 170.945312 C 419.304688 170.835938 419.304688 170.835938 419.304688 170.726562 C 419.304688 169.746094 418.757812 168.761719 417.667969 167.890625 L 349.84375 117.292969 C 348.640625 116.53125 347.117188 116.09375 345.480469 116.09375 Z M 345.480469 116.09375 " fill-opacity="1" fill-rule="nonzero"/></g><g clip-path="url(#f0df76bcb5)"><path fill="#82474a" d="M 345.480469 232.554688 C 342.207031 232.554688 338.9375 231.574219 336.429688 229.71875 L 268.605469 179.230469 C 265.441406 176.941406 263.695312 173.5625 263.695312 170.070312 C 263.695312 166.582031 265.441406 163.3125 268.605469 161.019531 L 335.230469 111.40625 C 341.007812 107.042969 350.058594 107.042969 355.839844 111.40625 L 422.464844 161.019531 C 425.519531 163.3125 427.371094 166.691406 427.371094 170.070312 C 427.371094 173.5625 425.628906 176.832031 422.464844 179.121094 L 354.640625 229.71875 C 352.023438 231.683594 348.75 232.554688 345.480469 232.554688 Z M 345.480469 116.09375 C 343.410156 116.09375 341.445312 116.640625 339.917969 117.730469 L 273.292969 167.347656 C 272.203125 168.109375 271.65625 169.089844 271.65625 170.070312 C 271.65625 171.054688 272.203125 172.035156 273.292969 172.796875 L 341.117188 223.394531 C 343.410156 225.140625 347.550781 225.03125 349.84375 223.394531 L 417.667969 172.796875 C 418.757812 172.035156 419.304688 171.054688 419.304688 170.070312 C 419.304688 169.089844 418.757812 168.109375 417.667969 167.347656 L 351.042969 117.730469 C 349.625 116.640625 347.550781 116.09375 345.480469 116.09375 Z M 345.480469 116.09375 " fill-opacity="1" fill-rule="nonzero"/></g><path fill="#b8696c" d="M 359.546875 188.390625 L 331.957031 188.390625 C 329.777344 188.390625 328.03125 186.648438 328.03125 184.464844 L 328.03125 156.878906 C 328.03125 148.917969 334.464844 142.484375 342.425781 142.484375 C 350.386719 142.484375 356.820312 148.917969 356.820312 156.878906 L 356.820312 159.605469 L 359.546875 159.605469 C 367.507812 159.605469 373.941406 166.039062 373.941406 173.996094 C 373.941406 181.957031 367.398438 188.390625 359.546875 188.390625 Z M 335.882812 180.429688 L 359.4375 180.429688 C 363.035156 180.429688 365.980469 177.488281 365.980469 173.886719 C 365.980469 170.289062 363.035156 167.347656 359.4375 167.347656 L 352.785156 167.347656 C 350.605469 167.347656 348.859375 165.601562 348.859375 163.421875 L 348.859375 156.769531 C 348.859375 153.171875 345.917969 150.226562 342.316406 150.226562 C 338.71875 150.226562 335.773438 153.171875 335.773438 156.769531 L 335.773438 180.429688 Z M 335.882812 180.429688 " fill-opacity="1" fill-rule="nonzero"/><g transform="matrix(1, 0, 0, 1, 16, 99)"><g clip-path="url(#1521598f8d)"><g fill="#b8696c" fill-opacity="1"><g transform="translate(1.006848, 81.783769)"><g><path d="M 29.6875 0.6875 L 28.0625 0.59375 L 26.53125 0.25 L 24.828125 -0.34375 L 23.296875 -0.6875 L 19.453125 -2.296875 L 15.78125 -4.265625 L 11.9375 -7.59375 L 8.453125 -11.34375 L 4.78125 -18.765625 L 3.578125 -23.625 L 3.078125 -29.859375 L 3.921875 -37.203125 L 4.78125 -40.6875 L 6.90625 -45.46875 L 8.53125 -47.953125 L 10.828125 -50.84375 L 14.5 -54.171875 L 16.984375 -56.046875 L 23.296875 -59.03125 L 31.5625 -60.65625 L 36.859375 -60.578125 L 38.5625 -60.3125 L 40.1875 -60.234375 L 48.375 -57.5 L 54.171875 -53.828125 L 56.5625 -51.359375 L 57.5 -49.734375 L 58.6875 -48.28125 L 59.46875 -46.921875 L 60.40625 -45.5625 L 60.90625 -43.765625 L 61.515625 -42.234375 L 62.015625 -40.359375 L 61.421875 -38.640625 L 59.96875 -37.96875 L 57.421875 -37.703125 L 55.03125 -37.96875 L 53.328125 -37.875 L 51.53125 -37.96875 L 50 -37.796875 L 48.03125 -38.734375 L 46.40625 -40.359375 L 45.46875 -41.625 L 43 -44.109375 L 41.796875 -45.046875 L 40.265625 -45.640625 L 37.625 -46.40625 L 33.953125 -46.578125 L 28.234375 -45.8125 L 25.9375 -44.53125 L 23.890625 -42.90625 L 21.84375 -40.53125 L 20.984375 -38.90625 L 19.703125 -35.828125 L 19.109375 -32.421875 L 19.109375 -27.21875 L 19.359375 -25.34375 L 19.796875 -23.796875 L 20.390625 -22.609375 L 20.984375 -20.90625 L 22.859375 -17.921875 L 25.34375 -15.703125 L 28.328125 -14.15625 L 31.390625 -13.046875 L 33.875 -12.796875 L 38.390625 -13.046875 L 41.375 -14.671875 L 42.65625 -15.1875 L 44.015625 -16.375 L 45.984375 -18.59375 L 46.84375 -20.21875 L 48.203125 -21.578125 L 50.15625 -22.609375 L 51.875 -22.515625 L 53.578125 -22.609375 L 55.28125 -22.359375 L 60.0625 -22.6875 L 61.765625 -21.578125 L 62.28125 -20.046875 L 60.0625 -13.5625 L 58.265625 -10.5 L 56.3125 -7.9375 L 53.921875 -5.546875 L 49.734375 -2.5625 L 48.28125 -1.875 L 46.5 -1.28125 L 44.953125 -0.421875 L 39.921875 0.59375 L 33.953125 1.03125 Z M 29.6875 0.6875 "/></g></g></g><g fill="#b8696c" fill-opacity="1"><g transform="translate(66.076069, 81.783769)"><g><path d="M 1.109375 -2.296875 L 2.140625 -5.890625 L 2.90625 -7.59375 L 3.921875 -8.953125 L 6.40625 -15.1875 L 8.78125 -19.625 L 9.390625 -21.328125 L 10.15625 -22.6875 L 10.671875 -24.484375 L 11.859375 -26.703125 L 12.453125 -28.328125 L 13.734375 -30.546875 L 15.09375 -33.609375 L 16.03125 -35.15625 L 16.46875 -36.59375 L 21.25 -47.34375 L 22.1875 -48.890625 L 25.84375 -56.5625 L 26.359375 -58.09375 L 27.984375 -59.640625 L 30.71875 -60.484375 L 33.609375 -59.71875 L 35.15625 -58.09375 L 35.65625 -56.484375 L 36.421875 -55.203125 L 37.796875 -51.953125 L 39.5 -48.796875 L 40.78125 -45.8125 L 41.203125 -44.453125 L 42.734375 -41.203125 L 43.25 -39.578125 L 44.953125 -36.59375 L 45.390625 -34.984375 L 46.234375 -33.53125 L 46.921875 -32.078125 L 47.859375 -30.546875 L 48.375 -28.828125 L 49.140625 -27.5625 L 49.734375 -25.84375 L 50.5 -24.40625 L 51.1875 -22.6875 L 52.125 -21.328125 L 53.328125 -18.171875 L 54.171875 -16.71875 L 54.765625 -15.09375 L 56.21875 -12.03125 L 56.734375 -10.40625 L 57.59375 -9.125 L 58.09375 -7.421875 L 59.203125 -5.96875 L 59.796875 -4.4375 L 60.3125 -2.296875 L 59.96875 -0.515625 L 58.4375 0 L 53.15625 0.171875 L 50.15625 -0.078125 L 48.625 0.078125 L 46.40625 -0.765625 L 44.953125 -2.140625 L 44.015625 -3.671875 L 43.59375 -5.203125 L 41.796875 -6.5625 L 38.984375 -7.5 L 34.984375 -7.34375 L 33.1875 -7.5 L 31.65625 -7.5 L 29.6875 -7.25 L 27.890625 -7.5 L 23.125 -7.421875 L 21.40625 -7.59375 L 19.359375 -6.734375 L 17.921875 -5.125 L 16.46875 -2.21875 L 14.9375 -0.6875 L 12.96875 0.171875 L 10.75 -0.078125 L 3.234375 -0.078125 L 1.53125 -0.515625 Z M 27.46875 -21.078125 L 34.125 -21.15625 L 35.578125 -21.84375 L 35.75 -23.375 L 35.15625 -24.90625 L 34.296875 -26.625 L 33.953125 -27.984375 L 33.015625 -29.4375 L 31.90625 -32.765625 L 30.890625 -33.4375 L 29.78125 -32.59375 L 29 -31.21875 L 25.59375 -23.46875 L 25.84375 -21.75 Z M 27.46875 -21.078125 "/></g></g></g><g fill="#b8696c" fill-opacity="1"><g transform="translate(127.989886, 81.783769)"><g><path d="M 6.5625 -2.5625 L 6.3125 -4.265625 L 6.484375 -5.796875 L 6.40625 -7.5 L 6.5625 -9.390625 L 6.140625 -12.796875 L 6.40625 -16.203125 L 6.3125 -18 L 6.5625 -19.53125 L 6.40625 -40.015625 L 6.140625 -41.796875 L 6.5625 -45.21875 L 6.3125 -46.921875 L 6.234375 -48.546875 L 6.484375 -53.65625 L 6.3125 -55.375 L 6.3125 -57.15625 L 7.5 -58.6875 L 8.875 -59.796875 L 15.78125 -59.640625 L 17.484375 -59.796875 L 19.28125 -59.640625 L 20.8125 -58.78125 L 21.671875 -56.90625 L 21.75 -55.203125 L 22.015625 -53.578125 L 21.75 -41.203125 L 22.015625 -39.671875 L 21.921875 -37.875 L 23.46875 -36.9375 L 25.515625 -37.03125 L 29.265625 -37.796875 L 30.71875 -38.46875 L 32.25 -39.421875 L 33.53125 -40.53125 L 34.546875 -41.890625 L 35.65625 -43.171875 L 36.34375 -44.796875 L 37.203125 -48.203125 L 37.625 -51.78125 L 37.359375 -56.984375 L 38.3125 -58.78125 L 40.359375 -59.796875 L 42.828125 -59.546875 L 50.59375 -59.796875 L 52.375 -58.859375 L 53.0625 -56.90625 L 53.15625 -53.484375 L 52.8125 -51.875 L 52.984375 -50 L 52.46875 -46.40625 L 52.375 -44.796875 L 51.53125 -41.546875 L 50.765625 -39.75 L 50.328125 -38.21875 L 49.484375 -36.59375 L 47.609375 -33.703125 L 45.125 -31.21875 L 43.59375 -30.28125 L 42.828125 -28.328125 L 42.828125 -26.453125 L 45.8125 -22.1875 L 48.28125 -17.75 L 49.3125 -16.203125 L 50 -14.671875 L 51.015625 -13.3125 L 52.640625 -10.40625 L 53.921875 -8.953125 L 54.59375 -7.34375 L 55.453125 -5.890625 L 56.640625 -4.609375 L 57.421875 -2.5625 L 56.984375 -0.59375 L 55.53125 0.171875 L 53.75 0 L 44.28125 0 L 41.375 -0.59375 L 39.75 -1.875 L 37.453125 -6.3125 L 36.34375 -7.765625 L 35.578125 -9.21875 L 34.546875 -10.671875 L 32.421875 -15.09375 L 28.921875 -20.90625 L 27.296875 -22.1875 L 24.734375 -22.6875 L 22.609375 -21.671875 L 21.84375 -20.140625 L 21.84375 -14.84375 L 21.671875 -12.96875 L 21.921875 -2.640625 L 21.078125 -0.765625 L 18.59375 0.078125 L 9.640625 0.171875 L 7.171875 -0.765625 Z M 6.5625 -2.5625 "/></g></g></g><g fill="#b8696c" fill-opacity="1"><g transform="translate(187.089429, 81.783769)"><g><path d="M 6.140625 -2.46875 L 6.484375 -4.1875 L 6.5625 -5.890625 L 6.40625 -9.21875 L 6.40625 -10.921875 L 6.234375 -12.875 L 6.484375 -14.421875 L 6.40625 -16.03125 L 6.5625 -17.921875 L 6.3125 -19.703125 L 6.484375 -23.125 L 6.234375 -26.453125 L 6.484375 -28.234375 L 6.484375 -43.515625 L 6.3125 -45.046875 L 6.484375 -46.84375 L 6.140625 -51.1875 L 6.484375 -53.65625 L 6.3125 -57.078125 L 7.171875 -58.953125 L 9.640625 -59.546875 L 20.8125 -59.796875 L 22.359375 -59.640625 L 25.671875 -59.71875 L 27.390625 -59.546875 L 31.140625 -59.71875 L 32.84375 -59.46875 L 34.375 -59.640625 L 41.203125 -59.546875 L 43 -58.78125 L 43.84375 -57.078125 L 43.59375 -55.453125 L 43.515625 -53.578125 L 43.765625 -51.953125 L 43.9375 -48.453125 L 43 -46.921875 L 41.203125 -45.984375 L 24.828125 -45.890625 L 22.1875 -45.125 L 21.328125 -42.65625 L 21.5 -40.015625 L 22.515625 -38.46875 L 23.96875 -37.53125 L 30.71875 -37.625 L 32.671875 -37.453125 L 34.46875 -37.453125 L 36.171875 -37.625 L 39.578125 -37.53125 L 41.03125 -36.59375 L 41.796875 -34.984375 L 41.96875 -33.265625 L 41.796875 -26.53125 L 40.953125 -24.90625 L 39.25 -23.96875 L 37.703125 -23.890625 L 35.921875 -24.0625 L 33.609375 -23.890625 L 29.09375 -24.140625 L 27.390625 -23.96875 L 24.0625 -23.96875 L 22.515625 -23.03125 L 21.75 -21.25 L 21.671875 -17.0625 L 22.4375 -14.421875 L 24.234375 -13.390625 L 26.109375 -13.5625 L 27.984375 -13.390625 L 29.609375 -13.65625 L 40.859375 -13.484375 L 43.421875 -12.625 L 44.53125 -10.921875 L 44.359375 -9.296875 L 44.453125 -4.015625 L 44.28125 -2.390625 L 43.515625 -0.765625 L 41.71875 0.078125 L 40.09375 0.25 L 34.890625 -0.078125 L 29.6875 0.171875 L 28.15625 -0.078125 L 8.875 0.078125 L 7.25 -0.859375 Z M 6.140625 -2.46875 "/></g></g></g><g fill="#b8696c" fill-opacity="1"><g transform="translate(1.006848, 168.888638)"><g><path d="M 16.375 -2.640625 L 16.296875 -9.296875 L 16.46875 -11 L 16.203125 -16.203125 L 16.296875 -18 L 16.203125 -19.703125 L 16.546875 -22.265625 L 16.296875 -24.734375 L 16.296875 -28.15625 L 16.46875 -29.859375 L 16.296875 -31.484375 L 16.546875 -34.125 L 16.296875 -43.515625 L 15.4375 -45.125 L 13.90625 -46.0625 L 6.3125 -46.15625 L 4.09375 -45.890625 L 2.390625 -46.75 L 1.453125 -48.625 L 1.53125 -57.15625 L 2.390625 -58.859375 L 4.265625 -59.71875 L 29.6875 -59.546875 L 31.65625 -59.796875 L 33.359375 -59.796875 L 35.0625 -59.640625 L 36.765625 -59.640625 L 38.640625 -59.890625 L 40.265625 -59.890625 L 41.625 -59.71875 L 43.6875 -59.890625 L 45.390625 -59.03125 L 46.234375 -57.328125 L 46.0625 -50.328125 L 46.234375 -48.546875 L 45.390625 -46.84375 L 43.421875 -46.0625 L 38.734375 -46.15625 L 37.203125 -45.984375 L 35.484375 -46.0625 L 34.046875 -45.984375 L 32.15625 -45.21875 L 31.484375 -43.6875 L 31.65625 -41.796875 L 31.390625 -40.09375 L 31.734375 -23.125 L 31.484375 -19.53125 L 31.65625 -18 L 31.484375 -12.796875 L 31.21875 -11 L 31.484375 -9.5625 L 31.5625 -6.140625 L 31.390625 -4.1875 L 31.484375 -2.5625 L 30.796875 -0.859375 L 29.09375 -0.171875 L 23.796875 -0.171875 L 22.1875 0 L 20.46875 -0.171875 L 18.859375 0 L 17.0625 -0.859375 Z M 16.375 -2.640625 "/></g></g></g><g fill="#b8696c" fill-opacity="1"><g transform="translate(48.678776, 168.888638)"><g><path d="M 6.140625 -2.46875 L 6.484375 -4.1875 L 6.5625 -5.890625 L 6.40625 -9.21875 L 6.40625 -10.921875 L 6.234375 -12.875 L 6.484375 -14.421875 L 6.40625 -16.03125 L 6.5625 -17.921875 L 6.3125 -19.703125 L 6.484375 -23.125 L 6.234375 -26.453125 L 6.484375 -28.234375 L 6.484375 -43.515625 L 6.3125 -45.046875 L 6.484375 -46.84375 L 6.140625 -51.1875 L 6.484375 -53.65625 L 6.3125 -57.078125 L 7.171875 -58.953125 L 9.640625 -59.546875 L 20.8125 -59.796875 L 22.359375 -59.640625 L 25.671875 -59.71875 L 27.390625 -59.546875 L 31.140625 -59.71875 L 32.84375 -59.46875 L 34.375 -59.640625 L 41.203125 -59.546875 L 43 -58.78125 L 43.84375 -57.078125 L 43.59375 -55.453125 L 43.515625 -53.578125 L 43.765625 -51.953125 L 43.9375 -48.453125 L 43 -46.921875 L 41.203125 -45.984375 L 24.828125 -45.890625 L 22.1875 -45.125 L 21.328125 -42.65625 L 21.5 -40.015625 L 22.515625 -38.46875 L 23.96875 -37.53125 L 30.71875 -37.625 L 32.671875 -37.453125 L 34.46875 -37.453125 L 36.171875 -37.625 L 39.578125 -37.53125 L 41.03125 -36.59375 L 41.796875 -34.984375 L 41.96875 -33.265625 L 41.796875 -26.53125 L 40.953125 -24.90625 L 39.25 -23.96875 L 37.703125 -23.890625 L 35.921875 -24.0625 L 33.609375 -23.890625 L 29.09375 -24.140625 L 27.390625 -23.96875 L 24.0625 -23.96875 L 22.515625 -23.03125 L 21.75 -21.25 L 21.671875 -17.0625 L 22.4375 -14.421875 L 24.234375 -13.390625 L 26.109375 -13.5625 L 27.984375 -13.390625 L 29.609375 -13.65625 L 40.859375 -13.484375 L 43.421875 -12.625 L 44.53125 -10.921875 L 44.359375 -9.296875 L 44.453125 -4.015625 L 44.28125 -2.390625 L 43.515625 -0.765625 L 41.71875 0.078125 L 40.09375 0.25 L 34.890625 -0.078125 L 29.6875 0.171875 L 28.15625 -0.078125 L 8.875 0.078125 L 7.25 -0.859375 Z M 6.140625 -2.46875 "/></g></g></g><g fill="#b8696c" fill-opacity="1"><g transform="translate(97.544645, 168.888638)"><g><path d="M 31.390625 0.859375 L 29.78125 0.859375 L 28.234375 0.515625 L 26.453125 0.34375 L 24.65625 -0.25 L 23.375 -0.59375 L 21.671875 -1.1875 L 15.875 -4.34375 L 14.59375 -5.375 L 13.140625 -6.3125 L 10.0625 -9.296875 L 6.65625 -14.25 L 6.0625 -15.703125 L 5.203125 -17.234375 L 4.953125 -18.765625 L 4.265625 -20.390625 L 3.40625 -23.71875 L 3.40625 -27.125 L 3.078125 -29.859375 L 4.609375 -40.53125 L 8.53125 -48.203125 L 9.5625 -49.65625 L 11.859375 -51.78125 L 12.875 -53.15625 L 18.859375 -56.984375 L 20.390625 -57.59375 L 21.671875 -58.359375 L 23.296875 -58.953125 L 26.625 -59.640625 L 28.234375 -60.140625 L 29.6875 -60.3125 L 37.453125 -60.3125 L 41.71875 -59.71875 L 45.046875 -58.78125 L 49.90625 -56.5625 L 51.78125 -55.28125 L 56.21875 -51.265625 L 59.375 -46.921875 L 60.75 -43.6875 L 61 -42.140625 L 61.6875 -40.4375 L 61.171875 -38.640625 L 59.796875 -37.875 L 58.09375 -37.703125 L 49.484375 -37.875 L 47.609375 -38.640625 L 46.0625 -40.265625 L 45.296875 -41.71875 L 44.015625 -43.078125 L 41.546875 -45.125 L 39.75 -45.734375 L 36.515625 -46.328125 L 31.21875 -46.5 L 28.234375 -45.640625 L 26.625 -44.953125 L 23.796875 -42.90625 L 21.671875 -40.265625 L 20.21875 -37.203125 L 19.703125 -35.65625 L 19.625 -33.953125 L 19.03125 -32.421875 L 18.9375 -29.6875 L 19.203125 -25.671875 L 20.21875 -22.359375 L 20.90625 -20.90625 L 24.0625 -16.8125 L 25.171875 -15.609375 L 26.78125 -14.84375 L 31.390625 -13.140625 L 36.171875 -13.046875 L 37.96875 -13.21875 L 39.671875 -13.734375 L 42.578125 -15.1875 L 45.8125 -18.6875 L 46.5 -20.140625 L 48.203125 -21.75 L 50.078125 -22.609375 L 59.203125 -22.515625 L 61.34375 -21.578125 L 61.859375 -20.046875 L 61.59375 -18.421875 L 61 -16.71875 L 60.578125 -15.09375 L 59.796875 -13.5625 L 57.25 -9.125 L 55.796875 -8.015625 L 54.859375 -6.5625 L 53.75 -5.453125 L 52.296875 -4.4375 L 50.765625 -3.5 L 49.484375 -2.640625 L 44.796875 -0.59375 L 36.515625 1.109375 Z M 31.390625 0.859375 "/></g></g></g><g fill="#b8696c" fill-opacity="1"><g transform="translate(162.613866, 168.888638)"><g><path d="M 6.484375 -2.390625 L 6.3125 -11.09375 L 6.484375 -12.796875 L 6.234375 -14.328125 L 6.484375 -16.03125 L 6.3125 -17.921875 L 6.5625 -21.921875 L 6.40625 -23.890625 L 6.5625 -26.53125 L 6.3125 -28.15625 L 6.3125 -33.09375 L 6.484375 -34.890625 L 6.140625 -40.09375 L 6.484375 -41.796875 L 6.3125 -43.25 L 6.5625 -45.125 L 6.140625 -50.25 L 6.40625 -51.875 L 6.234375 -53.75 L 6.234375 -55.375 L 6.484375 -57.25 L 7.421875 -58.6875 L 10.0625 -59.46875 L 11.6875 -59.640625 L 13.390625 -59.46875 L 18.421875 -59.640625 L 21.078125 -58.78125 L 22.09375 -56.984375 L 22.015625 -55.53125 L 22.265625 -47.09375 L 22.09375 -45.5625 L 22.09375 -40.4375 L 22.78125 -38.8125 L 24.5625 -38.046875 L 32.84375 -38.140625 L 34.375 -37.96875 L 37.796875 -37.96875 L 39.25 -38.8125 L 40.1875 -40.53125 L 40.1875 -45.46875 L 40.53125 -46.921875 L 40.359375 -56.21875 L 41.03125 -58.6875 L 43.59375 -59.46875 L 45.296875 -59.46875 L 48.03125 -59.71875 L 52.375 -59.640625 L 55.03125 -58.78125 L 55.875 -57.078125 L 56.046875 -55.375 L 55.703125 -53.65625 L 55.875 -52.046875 L 56.21875 -50.421875 L 55.796875 -43.34375 L 56.046875 -34.984375 L 55.875 -33.09375 L 55.96875 -29.859375 L 55.703125 -28.0625 L 55.703125 -26.359375 L 55.875 -24.5625 L 55.796875 -22.859375 L 56.140625 -19.625 L 56.140625 -5.890625 L 55.796875 -2.390625 L 54.859375 -0.765625 L 53.15625 0.171875 L 47.265625 0.171875 L 44.703125 -0.078125 L 43 0.078125 L 41.296875 -0.765625 L 40.4375 -2.5625 L 40.1875 -5.890625 L 40.53125 -8.453125 L 40.1875 -14.5 L 40.4375 -16.125 L 40.1875 -21.328125 L 39.328125 -23.03125 L 37.796875 -23.890625 L 36.171875 -23.890625 L 34.46875 -24.0625 L 32.765625 -23.890625 L 27.734375 -23.890625 L 26.1875 -24.0625 L 24.40625 -24.0625 L 22.6875 -23.03125 L 21.84375 -21.25 L 22.09375 -14.5 L 21.921875 -12.71875 L 22.015625 -10.828125 L 21.84375 -9.21875 L 22.015625 -7.5 L 21.84375 -5.96875 L 22.09375 -4.09375 L 22.015625 -2.390625 L 21.328125 -0.6875 L 19.453125 0.078125 L 17.65625 0.25 L 15.875 0 L 13.390625 -0.078125 L 10.75 0.171875 L 9.125 0.171875 L 7.171875 -0.59375 Z M 6.484375 -2.390625 "/></g></g></g></g></g><g transform="matrix(1, 0, 0, 1, 23, 298)"><g clip-path="url(#46d3de56e6)"><g fill="#82474a" fill-opacity="1"><g transform="translate(0.978239, 39.500844)"><g><path d="M 10.375 -2.890625 C 14.625 -2.890625 16.75 -4.347656 16.75 -7.265625 C 16.75 -8.160156 16.5625 -8.921875 16.1875 -9.546875 C 15.8125 -10.179688 15.300781 -10.726562 14.65625 -11.1875 C 14.007812 -11.644531 13.269531 -12.039062 12.4375 -12.375 C 11.613281 -12.71875 10.742188 -13.054688 9.828125 -13.390625 C 8.765625 -13.753906 7.753906 -14.164062 6.796875 -14.625 C 5.847656 -15.09375 5.023438 -15.640625 4.328125 -16.265625 C 3.628906 -16.898438 3.078125 -17.648438 2.671875 -18.515625 C 2.265625 -19.378906 2.0625 -20.425781 2.0625 -21.65625 C 2.0625 -24.207031 2.925781 -26.195312 4.65625 -27.625 C 6.394531 -29.050781 8.789062 -29.765625 11.84375 -29.765625 C 13.601562 -29.765625 15.203125 -29.578125 16.640625 -29.203125 C 18.085938 -28.828125 19.144531 -28.414062 19.8125 -27.96875 L 18.515625 -24.640625 C 17.929688 -25.003906 17.054688 -25.359375 15.890625 -25.703125 C 14.734375 -26.054688 13.382812 -26.234375 11.84375 -26.234375 C 11.050781 -26.234375 10.320312 -26.148438 9.65625 -25.984375 C 8.988281 -25.816406 8.398438 -25.566406 7.890625 -25.234375 C 7.390625 -24.898438 6.988281 -24.472656 6.6875 -23.953125 C 6.394531 -23.429688 6.25 -22.820312 6.25 -22.125 C 6.25 -21.34375 6.398438 -20.6875 6.703125 -20.15625 C 7.015625 -19.625 7.453125 -19.15625 8.015625 -18.75 C 8.578125 -18.34375 9.226562 -17.96875 9.96875 -17.625 C 10.707031 -17.289062 11.523438 -16.957031 12.421875 -16.625 C 13.679688 -16.125 14.835938 -15.617188 15.890625 -15.109375 C 16.941406 -14.609375 17.851562 -14.007812 18.625 -13.3125 C 19.394531 -12.613281 19.988281 -11.78125 20.40625 -10.8125 C 20.820312 -9.84375 21.03125 -8.675781 21.03125 -7.3125 C 21.03125 -4.757812 20.097656 -2.796875 18.234375 -1.421875 C 16.378906 -0.0546875 13.757812 0.625 10.375 0.625 C 9.226562 0.625 8.171875 0.546875 7.203125 0.390625 C 6.234375 0.242188 5.367188 0.0664062 4.609375 -0.140625 C 3.859375 -0.359375 3.207031 -0.582031 2.65625 -0.8125 C 2.113281 -1.050781 1.691406 -1.253906 1.390625 -1.421875 L 2.609375 -4.78125 C 3.242188 -4.414062 4.21875 -4.007812 5.53125 -3.5625 C 6.851562 -3.113281 8.46875 -2.890625 10.375 -2.890625 Z M 10.375 -2.890625 "/></g></g></g><g fill="#82474a" fill-opacity="1"><g transform="translate(33.6747, 39.500844)"><g><path d="M 2.4375 -14.5625 C 2.4375 -17.0625 2.804688 -19.257812 3.546875 -21.15625 C 4.285156 -23.0625 5.289062 -24.648438 6.5625 -25.921875 C 7.84375 -27.191406 9.328125 -28.148438 11.015625 -28.796875 C 12.710938 -29.441406 14.515625 -29.765625 16.421875 -29.765625 C 18.296875 -29.765625 20.0625 -29.441406 21.71875 -28.796875 C 23.382812 -28.148438 24.847656 -27.191406 26.109375 -25.921875 C 27.367188 -24.648438 28.367188 -23.0625 29.109375 -21.15625 C 29.859375 -19.257812 30.234375 -17.0625 30.234375 -14.5625 C 30.234375 -12.070312 29.859375 -9.875 29.109375 -7.96875 C 28.367188 -6.070312 27.367188 -4.484375 26.109375 -3.203125 C 24.847656 -1.929688 23.382812 -0.972656 21.71875 -0.328125 C 20.0625 0.304688 18.296875 0.625 16.421875 0.625 C 14.515625 0.625 12.710938 0.304688 11.015625 -0.328125 C 9.328125 -0.972656 7.84375 -1.929688 6.5625 -3.203125 C 5.289062 -4.484375 4.285156 -6.070312 3.546875 -7.96875 C 2.804688 -9.875 2.4375 -12.070312 2.4375 -14.5625 Z M 6.71875 -14.5625 C 6.71875 -12.800781 6.941406 -11.195312 7.390625 -9.75 C 7.835938 -8.3125 8.472656 -7.085938 9.296875 -6.078125 C 10.117188 -5.078125 11.125 -4.300781 12.3125 -3.75 C 13.507812 -3.207031 14.847656 -2.9375 16.328125 -2.9375 C 17.816406 -2.9375 19.144531 -3.207031 20.3125 -3.75 C 21.488281 -4.300781 22.488281 -5.078125 23.3125 -6.078125 C 24.144531 -7.085938 24.785156 -8.3125 25.234375 -9.75 C 25.679688 -11.195312 25.90625 -12.800781 25.90625 -14.5625 C 25.90625 -16.332031 25.679688 -17.9375 25.234375 -19.375 C 24.785156 -20.8125 24.144531 -22.035156 23.3125 -23.046875 C 22.488281 -24.054688 21.488281 -24.832031 20.3125 -25.375 C 19.144531 -25.925781 17.816406 -26.203125 16.328125 -26.203125 C 14.847656 -26.203125 13.507812 -25.925781 12.3125 -25.375 C 11.125 -24.832031 10.117188 -24.054688 9.296875 -23.046875 C 8.472656 -22.035156 7.835938 -20.8125 7.390625 -19.375 C 6.941406 -17.9375 6.71875 -16.332031 6.71875 -14.5625 Z M 6.71875 -14.5625 "/></g></g></g><g fill="#82474a" fill-opacity="1"><g transform="translate(76.694423, 39.500844)"><g><path d="M 21.125 -3.53125 L 21.125 0 L 3.609375 0 L 3.609375 -29.09375 L 7.6875 -29.09375 L 7.6875 -3.53125 Z M 21.125 -3.53125 "/></g></g></g><g fill="#82474a" fill-opacity="1"><g transform="translate(108.845334, 39.500844)"><g><path d="M 14.4375 0.625 C 12.539062 0.625 10.890625 0.332031 9.484375 -0.25 C 8.085938 -0.84375 6.941406 -1.648438 6.046875 -2.671875 C 5.148438 -3.691406 4.484375 -4.898438 4.046875 -6.296875 C 3.617188 -7.691406 3.40625 -9.203125 3.40625 -10.828125 L 3.40625 -29.09375 L 7.46875 -29.09375 L 7.46875 -11.296875 C 7.46875 -8.378906 8.109375 -6.265625 9.390625 -4.953125 C 10.679688 -3.640625 12.363281 -2.984375 14.4375 -2.984375 C 15.476562 -2.984375 16.425781 -3.144531 17.28125 -3.46875 C 18.132812 -3.789062 18.867188 -4.285156 19.484375 -4.953125 C 20.097656 -5.628906 20.570312 -6.488281 20.90625 -7.53125 C 21.238281 -8.582031 21.40625 -9.835938 21.40625 -11.296875 L 21.40625 -29.09375 L 25.484375 -29.09375 L 25.484375 -10.828125 C 25.484375 -9.203125 25.265625 -7.691406 24.828125 -6.296875 C 24.398438 -4.898438 23.726562 -3.691406 22.8125 -2.671875 C 21.90625 -1.648438 20.757812 -0.84375 19.375 -0.25 C 17.988281 0.332031 16.34375 0.625 14.4375 0.625 Z M 14.4375 0.625 "/></g></g></g><g fill="#82474a" fill-opacity="1"><g transform="translate(148.08825, 39.500844)"><g><path d="M 13.859375 0.46875 C 12.117188 0.238281 10.546875 -0.257812 9.140625 -1.03125 C 7.742188 -1.800781 6.550781 -2.820312 5.5625 -4.09375 C 4.570312 -5.363281 3.800781 -6.875 3.25 -8.625 C 2.707031 -10.375 2.4375 -12.351562 2.4375 -14.5625 C 2.4375 -17 2.804688 -19.160156 3.546875 -21.046875 C 4.285156 -22.941406 5.285156 -24.53125 6.546875 -25.8125 C 7.804688 -27.101562 9.273438 -28.082031 10.953125 -28.75 C 12.640625 -29.425781 14.429688 -29.765625 16.328125 -29.765625 C 17.535156 -29.765625 18.617188 -29.679688 19.578125 -29.515625 C 20.546875 -29.347656 21.382812 -29.148438 22.09375 -28.921875 C 22.8125 -28.703125 23.394531 -28.476562 23.84375 -28.25 C 24.289062 -28.03125 24.597656 -27.863281 24.765625 -27.75 L 23.59375 -24.390625 C 23.34375 -24.554688 22.976562 -24.738281 22.5 -24.9375 C 22.03125 -25.132812 21.492188 -25.332031 20.890625 -25.53125 C 20.285156 -25.726562 19.625 -25.890625 18.90625 -26.015625 C 18.195312 -26.140625 17.476562 -26.203125 16.75 -26.203125 C 15.207031 -26.203125 13.820312 -25.9375 12.59375 -25.40625 C 11.363281 -24.875 10.3125 -24.101562 9.4375 -23.09375 C 8.570312 -22.082031 7.910156 -20.851562 7.453125 -19.40625 C 6.992188 -17.96875 6.765625 -16.351562 6.765625 -14.5625 C 6.765625 -12.832031 6.96875 -11.253906 7.375 -9.828125 C 7.78125 -8.398438 8.382812 -7.175781 9.1875 -6.15625 C 10 -5.132812 11.015625 -4.34375 12.234375 -3.78125 C 13.453125 -3.21875 14.875 -2.9375 16.5 -2.9375 C 18.375 -2.9375 19.925781 -3.128906 21.15625 -3.515625 C 22.382812 -3.910156 23.3125 -4.265625 23.9375 -4.578125 L 24.984375 -1.21875 C 24.585938 -0.90625 23.640625 -0.53125 22.140625 -0.09375 C 20.648438 0.332031 18.753906 0.570312 16.453125 0.625 C 16.367188 0.789062 16.289062 0.953125 16.21875 1.109375 C 16.15625 1.265625 16.09375 1.410156 16.03125 1.546875 C 16.84375 1.941406 17.429688 2.367188 17.796875 2.828125 C 18.160156 3.296875 18.34375 3.976562 18.34375 4.875 C 18.34375 5.175781 18.269531 5.507812 18.125 5.875 C 17.988281 6.238281 17.753906 6.570312 17.421875 6.875 C 17.085938 7.1875 16.640625 7.441406 16.078125 7.640625 C 15.515625 7.835938 14.828125 7.9375 14.015625 7.9375 C 13.296875 7.9375 12.632812 7.878906 12.03125 7.765625 C 11.425781 7.648438 10.941406 7.523438 10.578125 7.390625 L 11.046875 5 C 11.378906 5.113281 11.734375 5.210938 12.109375 5.296875 C 12.484375 5.378906 12.910156 5.421875 13.390625 5.421875 C 14.398438 5.421875 14.90625 5.097656 14.90625 4.453125 C 14.90625 4.140625 14.75 3.878906 14.4375 3.671875 C 14.132812 3.460938 13.703125 3.242188 13.140625 3.015625 L 12.84375 2.890625 C 12.957031 2.554688 13.101562 2.164062 13.28125 1.71875 C 13.46875 1.269531 13.660156 0.851562 13.859375 0.46875 Z M 13.859375 0.46875 "/></g></g></g><g fill="#82474a" fill-opacity="1"><g transform="translate(184.477576, 39.500844)"><g><path d="M 2.4375 -14.5625 C 2.4375 -17.0625 2.804688 -19.257812 3.546875 -21.15625 C 4.285156 -23.0625 5.289062 -24.648438 6.5625 -25.921875 C 7.84375 -27.191406 9.328125 -28.148438 11.015625 -28.796875 C 12.710938 -29.441406 14.515625 -29.765625 16.421875 -29.765625 C 18.296875 -29.765625 20.0625 -29.441406 21.71875 -28.796875 C 23.382812 -28.148438 24.847656 -27.191406 26.109375 -25.921875 C 27.367188 -24.648438 28.367188 -23.0625 29.109375 -21.15625 C 29.859375 -19.257812 30.234375 -17.0625 30.234375 -14.5625 C 30.234375 -12.070312 29.859375 -9.875 29.109375 -7.96875 C 28.367188 -6.070312 27.367188 -4.484375 26.109375 -3.203125 C 24.847656 -1.929688 23.382812 -0.972656 21.71875 -0.328125 C 20.0625 0.304688 18.296875 0.625 16.421875 0.625 C 14.515625 0.625 12.710938 0.304688 11.015625 -0.328125 C 9.328125 -0.972656 7.84375 -1.929688 6.5625 -3.203125 C 5.289062 -4.484375 4.285156 -6.070312 3.546875 -7.96875 C 2.804688 -9.875 2.4375 -12.070312 2.4375 -14.5625 Z M 6.71875 -14.5625 C 6.71875 -12.800781 6.941406 -11.195312 7.390625 -9.75 C 7.835938 -8.3125 8.472656 -7.085938 9.296875 -6.078125 C 10.117188 -5.078125 11.125 -4.300781 12.3125 -3.75 C 13.507812 -3.207031 14.847656 -2.9375 16.328125 -2.9375 C 17.816406 -2.9375 19.144531 -3.207031 20.3125 -3.75 C 21.488281 -4.300781 22.488281 -5.078125 23.3125 -6.078125 C 24.144531 -7.085938 24.785156 -8.3125 25.234375 -9.75 C 25.679688 -11.195312 25.90625 -12.800781 25.90625 -14.5625 C 25.90625 -16.332031 25.679688 -17.9375 25.234375 -19.375 C 24.785156 -20.8125 24.144531 -22.035156 23.3125 -23.046875 C 22.488281 -24.054688 21.488281 -24.832031 20.3125 -25.375 C 19.144531 -25.925781 17.816406 -26.203125 16.328125 -26.203125 C 14.847656 -26.203125 13.507812 -25.925781 12.3125 -25.375 C 11.125 -24.832031 10.117188 -24.054688 9.296875 -23.046875 C 8.472656 -22.035156 7.835938 -20.8125 7.390625 -19.375 C 6.941406 -17.9375 6.71875 -16.332031 6.71875 -14.5625 Z M 23.265625 -36.390625 C 23.117188 -36.054688 22.925781 -35.664062 22.6875 -35.21875 C 22.457031 -34.769531 22.160156 -34.359375 21.796875 -33.984375 C 21.429688 -33.609375 21.003906 -33.285156 20.515625 -33.015625 C 20.023438 -32.753906 19.484375 -32.625 18.890625 -32.625 C 18.335938 -32.625 17.816406 -32.71875 17.328125 -32.90625 C 16.835938 -33.101562 16.367188 -33.316406 15.921875 -33.546875 C 15.441406 -33.765625 15.03125 -33.929688 14.6875 -34.046875 C 14.351562 -34.160156 14.035156 -34.21875 13.734375 -34.21875 C 13.253906 -34.21875 12.8125 -34.019531 12.40625 -33.625 C 12 -33.226562 11.6875 -32.8125 11.46875 -32.375 L 9.453125 -33.375 C 9.566406 -33.707031 9.75 -34.097656 10 -34.546875 C 10.25 -34.992188 10.554688 -35.40625 10.921875 -35.78125 C 11.285156 -36.164062 11.710938 -36.488281 12.203125 -36.75 C 12.691406 -37.019531 13.226562 -37.15625 13.8125 -37.15625 C 14.375 -37.15625 14.898438 -37.054688 15.390625 -36.859375 C 15.878906 -36.660156 16.347656 -36.453125 16.796875 -36.234375 C 17.273438 -36.003906 17.679688 -35.832031 18.015625 -35.71875 C 18.347656 -35.613281 18.671875 -35.5625 18.984375 -35.5625 C 19.453125 -35.5625 19.890625 -35.753906 20.296875 -36.140625 C 20.703125 -36.535156 21.019531 -36.957031 21.25 -37.40625 Z M 23.265625 -36.390625 "/></g></g></g><g fill="#82474a" fill-opacity="1"><g transform="translate(227.497299, 39.500844)"><g><path d="M 3.609375 0 L 3.609375 -29.09375 L 21.375 -29.09375 L 21.375 -25.609375 L 7.6875 -25.609375 L 7.6875 -16.96875 L 19.859375 -16.96875 L 19.859375 -13.5625 L 7.6875 -13.5625 L 7.6875 -3.484375 L 22.421875 -3.484375 L 22.421875 0 Z M 3.609375 0 "/></g></g></g><g fill="#82474a" fill-opacity="1"><g transform="translate(261.830362, 39.500844)"><g><path d="M 10.375 -2.890625 C 14.625 -2.890625 16.75 -4.347656 16.75 -7.265625 C 16.75 -8.160156 16.5625 -8.921875 16.1875 -9.546875 C 15.8125 -10.179688 15.300781 -10.726562 14.65625 -11.1875 C 14.007812 -11.644531 13.269531 -12.039062 12.4375 -12.375 C 11.613281 -12.71875 10.742188 -13.054688 9.828125 -13.390625 C 8.765625 -13.753906 7.753906 -14.164062 6.796875 -14.625 C 5.847656 -15.09375 5.023438 -15.640625 4.328125 -16.265625 C 3.628906 -16.898438 3.078125 -17.648438 2.671875 -18.515625 C 2.265625 -19.378906 2.0625 -20.425781 2.0625 -21.65625 C 2.0625 -24.207031 2.925781 -26.195312 4.65625 -27.625 C 6.394531 -29.050781 8.789062 -29.765625 11.84375 -29.765625 C 13.601562 -29.765625 15.203125 -29.578125 16.640625 -29.203125 C 18.085938 -28.828125 19.144531 -28.414062 19.8125 -27.96875 L 18.515625 -24.640625 C 17.929688 -25.003906 17.054688 -25.359375 15.890625 -25.703125 C 14.734375 -26.054688 13.382812 -26.234375 11.84375 -26.234375 C 11.050781 -26.234375 10.320312 -26.148438 9.65625 -25.984375 C 8.988281 -25.816406 8.398438 -25.566406 7.890625 -25.234375 C 7.390625 -24.898438 6.988281 -24.472656 6.6875 -23.953125 C 6.394531 -23.429688 6.25 -22.820312 6.25 -22.125 C 6.25 -21.34375 6.398438 -20.6875 6.703125 -20.15625 C 7.015625 -19.625 7.453125 -19.15625 8.015625 -18.75 C 8.578125 -18.34375 9.226562 -17.96875 9.96875 -17.625 C 10.707031 -17.289062 11.523438 -16.957031 12.421875 -16.625 C 13.679688 -16.125 14.835938 -15.617188 15.890625 -15.109375 C 16.941406 -14.609375 17.851562 -14.007812 18.625 -13.3125 C 19.394531 -12.613281 19.988281 -11.78125 20.40625 -10.8125 C 20.820312 -9.84375 21.03125 -8.675781 21.03125 -7.3125 C 21.03125 -4.757812 20.097656 -2.796875 18.234375 -1.421875 C 16.378906 -0.0546875 13.757812 0.625 10.375 0.625 C 9.226562 0.625 8.171875 0.546875 7.203125 0.390625 C 6.234375 0.242188 5.367188 0.0664062 4.609375 -0.140625 C 3.859375 -0.359375 3.207031 -0.582031 2.65625 -0.8125 C 2.113281 -1.050781 1.691406 -1.253906 1.390625 -1.421875 L 2.609375 -4.78125 C 3.242188 -4.414062 4.21875 -4.007812 5.53125 -3.5625 C 6.851562 -3.113281 8.46875 -2.890625 10.375 -2.890625 Z M 10.375 -2.890625 "/></g></g></g><g fill="#82474a" fill-opacity="1"><g transform="translate(294.526822, 39.500844)"><g/></g></g><g fill="#82474a" fill-opacity="1"><g transform="translate(314.591955, 39.500844)"><g><path d="M 3.609375 -29.09375 L 7.6875 -29.09375 L 7.6875 0 L 3.609375 0 Z M 3.609375 -29.09375 "/></g></g></g><g fill="#82474a" fill-opacity="1"><g transform="translate(336.251743, 39.500844)"><g><path d="M 2.4375 -14.5625 C 2.4375 -17.0625 2.804688 -19.257812 3.546875 -21.15625 C 4.285156 -23.0625 5.289062 -24.648438 6.5625 -25.921875 C 7.84375 -27.191406 9.328125 -28.148438 11.015625 -28.796875 C 12.710938 -29.441406 14.515625 -29.765625 16.421875 -29.765625 C 18.296875 -29.765625 20.0625 -29.441406 21.71875 -28.796875 C 23.382812 -28.148438 24.847656 -27.191406 26.109375 -25.921875 C 27.367188 -24.648438 28.367188 -23.0625 29.109375 -21.15625 C 29.859375 -19.257812 30.234375 -17.0625 30.234375 -14.5625 C 30.234375 -12.070312 29.859375 -9.875 29.109375 -7.96875 C 28.367188 -6.070312 27.367188 -4.484375 26.109375 -3.203125 C 24.847656 -1.929688 23.382812 -0.972656 21.71875 -0.328125 C 20.0625 0.304688 18.296875 0.625 16.421875 0.625 C 14.515625 0.625 12.710938 0.304688 11.015625 -0.328125 C 9.328125 -0.972656 7.84375 -1.929688 6.5625 -3.203125 C 5.289062 -4.484375 4.285156 -6.070312 3.546875 -7.96875 C 2.804688 -9.875 2.4375 -12.070312 2.4375 -14.5625 Z M 6.71875 -14.5625 C 6.71875 -12.800781 6.941406 -11.195312 7.390625 -9.75 C 7.835938 -8.3125 8.472656 -7.085938 9.296875 -6.078125 C 10.117188 -5.078125 11.125 -4.300781 12.3125 -3.75 C 13.507812 -3.207031 14.847656 -2.9375 16.328125 -2.9375 C 17.816406 -2.9375 19.144531 -3.207031 20.3125 -3.75 C 21.488281 -4.300781 22.488281 -5.078125 23.3125 -6.078125 C 24.144531 -7.085938 24.785156 -8.3125 25.234375 -9.75 C 25.679688 -11.195312 25.90625 -12.800781 25.90625 -14.5625 C 25.90625 -16.332031 25.679688 -17.9375 25.234375 -19.375 C 24.785156 -20.8125 24.144531 -22.035156 23.3125 -23.046875 C 22.488281 -24.054688 21.488281 -24.832031 20.3125 -25.375 C 19.144531 -25.925781 17.816406 -26.203125 16.328125 -26.203125 C 14.847656 -26.203125 13.507812 -25.925781 12.3125 -25.375 C 11.125 -24.832031 10.117188 -24.054688 9.296875 -23.046875 C 8.472656 -22.035156 7.835938 -20.8125 7.390625 -19.375 C 6.941406 -17.9375 6.71875 -16.332031 6.71875 -14.5625 Z M 6.71875 -14.5625 "/></g></g></g><g fill="#82474a" fill-opacity="1"><g transform="translate(379.271466, 39.500844)"><g><path d="M 23.046875 -29.09375 L 23.046875 -25.5625 L 13.890625 -25.5625 L 13.890625 0 L 9.828125 0 L 9.828125 -25.5625 L 0.671875 -25.5625 L 0.671875 -29.09375 Z M 23.046875 -29.09375 "/></g></g></g></g></g></svg>