<svg xmlns="http://www.w3.org/2000/svg" xmlns:xlink="http://www.w3.org/1999/xlink" width="600" zoomAndPan="magnify" viewBox="0 0 450 449.999984" height="600" preserveAspectRatio="xMidYMid meet" version="1.0"><defs><clipPath id="86aba770f4"><path d="M 47 28 L 403 28 L 403 423.835938 L 47 423.835938 Z M 47 28 " clip-rule="nonzero"/></clipPath></defs><path fill="#b8696c" d="M 225.824219 363.914062 C 218.960938 363.914062 211.863281 361.785156 206.417969 357.527344 L 50.9375 245.824219 C 47.148438 242.984375 46.203125 237.777344 49.042969 233.753906 C 51.882812 229.96875 57.089844 229.023438 61.113281 231.863281 L 216.832031 343.5625 C 221.5625 347.113281 228.902344 347.585938 233.398438 344.507812 L 388.878906 231.863281 C 392.664062 229.023438 398.109375 229.96875 400.949219 233.753906 C 403.789062 237.542969 402.84375 242.984375 399.054688 245.824219 L 243.335938 358.472656 C 238.128906 362.023438 231.976562 363.914062 225.824219 363.914062 Z M 225.824219 363.914062 " fill-opacity="1" fill-rule="nonzero"/><g clip-path="url(#86aba770f4)"><path fill="#82474a" d="M 224.878906 423.316406 C 217.777344 423.316406 210.679688 421.1875 205.234375 417.164062 L 58.035156 307.589844 C 50.9375 302.386719 47.148438 294.8125 47.621094 287.003906 C 47.621094 287.003906 47.621094 169.148438 47.621094 168.675781 C 47.621094 168.675781 47.621094 168.203125 47.621094 167.492188 C 47.621094 167.492188 47.621094 167.019531 47.621094 166.308594 C 47.621094 166.308594 47.621094 165.835938 47.621094 165.125 C 47.386719 158.023438 51.171875 150.453125 58.035156 145.246094 L 205.234375 35.199219 C 216.359375 26.917969 233.632812 26.917969 244.519531 35.199219 L 391.71875 145.007812 C 398.820312 150.214844 402.605469 157.789062 402.132812 165.597656 C 402.132812 176.246094 402.132812 287.003906 402.132812 287.476562 C 402.367188 294.574219 398.582031 302.148438 391.71875 307.355469 L 244.519531 417.164062 C 239.078125 421.421875 231.976562 423.316406 224.878906 423.316406 Z M 224.878906 46.324219 C 221.328125 46.324219 218.015625 47.269531 215.410156 49.164062 L 68.210938 158.734375 C 65.84375 160.628906 64.425781 162.757812 64.660156 164.886719 C 64.660156 165.125 64.660156 166.542969 64.660156 166.78125 C 64.660156 167.019531 64.660156 167.726562 64.660156 167.964844 C 64.660156 168.203125 64.660156 168.910156 64.660156 169.148438 C 64.660156 171.042969 64.660156 284.871094 64.660156 287.003906 C 64.660156 289.605469 65.84375 291.734375 68.210938 293.628906 L 215.410156 403.4375 C 220.382812 407.222656 229.375 407.222656 234.34375 403.4375 L 381.542969 293.628906 C 383.910156 291.734375 385.328125 289.605469 385.09375 287.476562 C 385.09375 284.636719 385.09375 167.726562 385.09375 165.363281 C 385.09375 165.125 385.09375 165.125 385.09375 164.886719 C 385.09375 162.757812 383.910156 160.628906 381.542969 158.734375 L 234.34375 48.925781 C 231.742188 47.269531 228.425781 46.324219 224.878906 46.324219 Z M 224.878906 46.324219 " fill-opacity="1" fill-rule="nonzero"/></g><path fill="#82474a" d="M 224.878906 299.070312 C 217.777344 299.070312 210.679688 296.941406 205.234375 292.917969 L 58.035156 183.347656 C 51.171875 178.378906 47.386719 171.042969 47.386719 163.46875 C 47.386719 155.894531 51.171875 148.796875 58.035156 143.824219 L 202.632812 36.148438 C 215.175781 26.679688 234.816406 26.679688 247.359375 36.148438 L 391.957031 143.824219 C 398.582031 148.796875 402.605469 156.132812 402.605469 163.46875 C 402.605469 171.042969 398.820312 178.140625 391.957031 183.109375 L 244.757812 292.917969 C 239.078125 297.179688 231.976562 299.070312 224.878906 299.070312 Z M 224.878906 46.324219 C 220.382812 46.324219 216.121094 47.507812 212.808594 49.875 L 68.210938 157.550781 C 65.84375 159.207031 64.660156 161.339844 64.660156 163.46875 C 64.660156 165.597656 65.84375 167.726562 68.210938 169.382812 L 215.410156 279.191406 C 220.382812 282.980469 229.375 282.742188 234.34375 279.191406 L 381.542969 169.382812 C 383.910156 167.726562 385.09375 165.597656 385.09375 163.46875 C 385.09375 161.339844 383.910156 159.207031 381.542969 157.550781 L 236.945312 49.875 C 233.871094 47.507812 229.375 46.324219 224.878906 46.324219 Z M 224.878906 46.324219 " fill-opacity="1" fill-rule="nonzero"/><path fill="#b8696c" d="M 255.40625 203.226562 L 195.53125 203.226562 C 190.800781 203.226562 187.011719 199.441406 187.011719 194.707031 L 187.011719 134.832031 C 187.011719 117.558594 200.976562 103.59375 218.25 103.59375 C 235.527344 103.59375 249.488281 117.558594 249.488281 134.832031 L 249.488281 140.75 L 255.40625 140.75 C 272.683594 140.75 286.644531 154.710938 286.644531 171.988281 C 286.644531 189.261719 272.445312 203.226562 255.40625 203.226562 Z M 204.050781 185.949219 L 255.167969 185.949219 C 262.980469 185.949219 269.367188 179.5625 269.367188 171.75 C 269.367188 163.941406 262.980469 157.550781 255.167969 157.550781 L 240.734375 157.550781 C 236 157.550781 232.214844 153.765625 232.214844 149.03125 L 232.214844 134.597656 C 232.214844 126.785156 225.824219 120.398438 218.015625 120.398438 C 210.203125 120.398438 203.816406 126.785156 203.816406 134.597656 L 203.816406 185.949219 Z M 204.050781 185.949219 " fill-opacity="1" fill-rule="nonzero"/></svg>